<svg viewBox="0 0 1200 429" version="1.1" xmlns="http://www.w3.org/2000/svg" xmlns:xlink="http://www.w3.org/1999/xlink"><desc>Created with Sketch by Daniel Echegaray.</desc><defs><polygon id="path-1" points="0.219911665 0.216806452 62.3305707 0.216806452 62.3305707 428.999077 0.219911665 428.999077"/><polygon id="path-3" points="0 429 1211.93054 429 1211.93054 0.216806452 0 0.216806452"/></defs><g id="Toronto-SVG" stroke="none" stroke-width="1" fill="none" fill-rule="evenodd"><g id="About" transform="translate(0.000000, -975.000000)"><g id="Toronto-SVG" transform="translate(-9.000000, 975.000000)"><polygon id="Fill-1" fill="#552BEA" points="906.98 409.311594 929.2 409.311594 929.2 316.050725 906.98 316.050725"/><polygon id="Fill-2" fill="#552BEA" points="831.23 412.42029 853.45 412.42029 853.45 349.210145 831.23 349.210145"/><polygon id="Fill-3" fill="#552BEA" points="638.32 412.42029 652.46 412.42029 652.46 354.391304 638.32 354.391304"/><polygon id="Fill-4" fill="#552BEA" points="697.91 411.384058 712.05 411.384058 712.05 351.282609 697.91 351.282609"/><polygon id="Fill-5" fill="#552BEA" points="729.22 390.65942 752.45 390.65942 752.45 324.34058 729.22 324.34058"/><polygon id="Fill-6" fill="#552BEA" points="657.51 390.65942 682.76 390.65942 682.76 313.978261 657.51 313.978261"/><polygon id="Fill-7" fill="#552BEA" points="952.43 410.347826 980.71 410.347826 980.71 291.181159 952.43 291.181159"/><polygon id="Fill-8" fill="#552BEA" points="1105.95 413.456522 1134.23 413.456522 1134.23 330.557971 1105.95 330.557971"/><polygon id="Fill-9" fill="#552BEA" points="989.8 395.84058 1029.19 395.84058 1029.19 309.833333 989.8 309.833333"/><polygon id="Fill-10" fill="#552BEA" points="906.98 410.347826 950.41 410.347826 950.41 330.557971 906.98 330.557971"/><polygon id="Fill-11" fill="#552BEA" points="857.49 412.42029 900.92 412.42029 900.92 341.956522 857.49 341.956522"/><polygon id="Fill-12" fill="#552BEA" points="377.74 414.492754 399.96 414.492754 399.96 323.304348 377.74 323.304348"/><polygon id="Fill-13" fill="#552BEA" points="335.32 412.42029 357.54 412.42029 357.54 316.050725 335.32 316.050725"/><polygon id="Fill-14" fill="#552BEA" points="543.38 404.130435 571.66 404.130435 571.66 287.036232 543.38 287.036232"/><polygon id="Fill-15" fill="#552BEA" points="282.8 402.057971 311.08 402.057971 311.08 282.891304 282.8 282.891304"/><polygon id="Fill-16" fill="#552BEA" points="496.92 401.021739 536.31 401.021739 536.31 315.014493 496.92 315.014493"/><polygon id="Fill-17" fill="#552BEA" points="308.05 396.876812 334.31 396.876812 334.31 303.615942 308.05 303.615942"/><polygon id="Fill-18" fill="#552BEA" points="362.59 421.746377 388.85 421.746377 388.85 338.847826 362.59 338.847826"/><polygon id="Fill-19" fill="#552BEA" points="651.45 402.057971 670.64 402.057971 670.64 341.956522 651.45 341.956522"/><polygon id="Fill-20" fill="#552BEA" points="576.71 398.949275 595.9 398.949275 595.9 338.847826 576.71 338.847826"/><polygon id="Fill-21" fill="#552BEA" points="529.24 378.224638 558.53 378.224638 558.53 311.905797 529.24 311.905797"/><polygon id="Fill-22" fill="#552BEA" points="615.09 379.26087 644.38 379.26087 644.38 301.543478 615.09 301.543478"/><polygon id="Fill-23" fill="#552BEA" points="243.41 396.876812 279.77 396.876812 279.77 277.710145 243.41 277.710145"/><polygon id="Fill-24" fill="#552BEA" points="54.54 423.818841 90.9 423.818841 90.9 317.086957 54.54 317.086957"/><polygon id="Fill-25" fill="#552BEA" points="182.81 383.405797 232.3 383.405797 232.3 297.398551 182.81 297.398551"/><polygon id="Fill-26" fill="#552BEA" points="280.78 396.876812 335.32 396.876812 335.32 317.086957 280.78 317.086957"/><polygon id="Fill-27" fill="#552BEA" points="923.14 402.057971 949.4 402.057971 949.4 308.797101 923.14 308.797101"/><polygon id="Fill-28" fill="#552BEA" points="1020.1 423.818841 1046.36 423.818841 1046.36 303.615942 1020.1 303.615942"/><polygon id="Fill-29" fill="#552BEA" points="859.51 402.057971 895.87 402.057971 895.87 282.891304 859.51 282.891304"/><polygon id="Fill-30" fill="#552BEA" points="1077.67 388.586957 1114.03 388.586957 1114.03 269.42029 1077.67 269.42029"/><polygon id="Fill-31" fill="#552BEA" points="1092.82 352.318841 1097.87 352.318841 1097.87 234.188406 1092.82 234.188406"/><polygon id="Fill-32" fill="#552BEA" points="797.9 388.586957 847.39 388.586957 847.39 302.57971 797.9 302.57971"/><polygon id="Fill-33" fill="#552BEA" points="896.88 402.057971 951.42 402.057971 951.42 322.268116 896.88 322.268116"/><polygon id="Fill-34" fill="#552BEA" points="958.49 414.492754 1013.03 414.492754 1013.03 334.702899 958.49 334.702899"/><g id="Group-74"><g id="Group-37" transform="translate(672.818274, 0.000000)"><mask id="mask-2" fill="white"><use xlink:href="#path-1"/></mask><g id="Clip-36"/><path d="M62.3305707,163.699481 C62.3305707,162.294852 60.8581122,160.980174 58.3090922,159.838481 C60.8581122,157.854932 62.3305707,155.569239 62.3305707,153.129013 C62.3305707,149.72469 59.4898372,146.622513 54.8085306,144.230723 L54.8085306,140.425077 C54.8085306,137.758819 47.8976996,135.50311 38.3614475,134.741981 L38.3614475,85.2270774 C41.0597971,84.2699 42.823969,82.8006903 42.823969,81.1308194 C42.823969,79.0803839 40.1777111,77.3205613 36.3645993,76.4671742 L36.3645993,47.4843032 L34.4059518,47.4843032 L34.4059518,36.7546903 L33.3154991,36.7546903 L33.3154991,0.215883871 L29.2384561,0.215883871 L29.2384561,36.7546903 L28.1445306,36.7546903 L28.1445306,47.4843032 L26.1789375,47.4843032 L26.1789375,76.4694806 C22.3658257,77.3205613 19.7265134,79.0803839 19.7265134,81.1308194 C19.7265134,82.8006903 21.4906853,84.2699 24.1925077,85.2270774 L24.1925077,134.741981 C14.6527827,135.50311 7.73500622,137.758819 7.73500622,140.425077 L7.73500622,144.230723 C3.06411797,146.622513 0.219911665,149.72469 0.219911665,153.129013 C0.219911665,155.569239 1.69237012,157.854932 4.23444462,159.838481 C1.69237012,160.980174 0.219911665,162.294852 0.219911665,163.699481 C0.219911665,167.17069 9.11369963,170.113723 21.4455392,171.156239 C19.9939174,292.505577 2.35567098,428.999077 2.35567098,428.999077 L31.2735048,428.999077 L60.1948114,428.999077 C60.1948114,428.999077 42.5600377,292.505577 41.1014704,171.156239 C53.4298372,170.113723 62.3305707,167.17069 62.3305707,163.699481" id="Fill-35" fill="#724BFB" mask="url(#mask-2)"/></g><mask id="mask-4" fill="white"><use xlink:href="#path-3"/></mask><g id="Clip-39"/><polygon id="Fill-38" fill="#724BFB" mask="url(#mask-4)" points="297.033765 429 597.91537 429 597.91537 386.526694 297.033765 386.526694"/><path d="M596.559944,412.289527 C594.656861,376.963915 528.642798,348.580721 447.473526,348.580721 C366.307726,348.580721 300.29019,376.963915 298.39058,412.289527 L596.559944,412.289527 Z" id="Fill-40" fill="#724BFB" mask="url(#mask-4)"/><path d="M548.056329,395.860673 C533.810988,377.531302 494.169211,364.340705 447.47422,364.340705 C400.779229,364.340705 361.137452,377.531302 346.892111,395.860673 L548.056329,395.860673 Z" id="Fill-41" fill="#724BFB" mask="url(#mask-4)"/><polygon id="Fill-42" fill="#724BFB" mask="url(#mask-4)" points="586.048883 429 633.799599 429 633.799599 361.241065 586.048883 361.241065"/><polygon id="Fill-43" fill="#724BFB" mask="url(#mask-4)" points="735.149192 429 778.180401 429 778.180401 324.114113 735.149192 324.114113"/><polygon id="Fill-44" fill="#724BFB" mask="url(#mask-4)" points="782.316481 429 847.181054 429 847.181054 318.313387 782.316481 318.313387"/><polygon id="Fill-45" fill="#724BFB" mask="url(#mask-4)" points="862.089696 429 911.555966 429 911.555966 342.288952 862.089696 342.288952"/><polygon id="Fill-46" fill="#724BFB" mask="url(#mask-4)" points="1025.71664 429 1090.58121 429 1090.58121 318.313387 1025.71664 318.313387"/><polygon id="Fill-47" fill="#724BFB" mask="url(#mask-4)" points="1105.48638 429 1168.92712 429 1168.92712 307.869774 1105.48638 307.869774"/><polygon id="Fill-48" fill="#724BFB" mask="url(#mask-4)" points="924.978258 429 974.444527 429 974.444527 369.362081 924.978258 369.362081"/><polygon id="Fill-49" fill="#724BFB" mask="url(#mask-4)" points="982.622923 429 1016.95135 429 1016.95135 351.957597 982.622923 351.957597"/><polygon id="Fill-50" fill="#724BFB" mask="url(#mask-4)" points="1160.22433 429 1194.55276 429 1194.55276 351.957597 1160.22433 351.957597"/><polygon id="Fill-51" fill="#724BFB" mask="url(#mask-4)" points="628.559175 429 682.515748 429 682.515748 375.1605 628.559175 375.1605"/><polygon id="Fill-52" fill="#724BFB" mask="url(#mask-4)" points="747.731072 429 801.69459 429 801.69459 383.671306 747.731072 383.671306"/><polygon id="Fill-53" fill="#724BFB" mask="url(#mask-4)" points="820.197559 429 874.161077 429 874.161077 373.656694 820.197559 373.656694"/><polygon id="Fill-54" fill="#724BFB" mask="url(#mask-4)" points="880.464172 429 934.420745 429 934.420745 402.081403 880.464172 402.081403"/><polygon id="Fill-55" fill="#724BFB" mask="url(#mask-4)" points="962.987828 429 1003.51516 429 1003.51516 409.817242 962.987828 409.817242"/><polygon id="Fill-56" fill="#724BFB" mask="url(#mask-4)" points="1005.4495 429 1045.97684 429 1045.97684 386.526694 1005.4495 386.526694"/><polygon id="Fill-57" fill="#724BFB" mask="url(#mask-4)" points="1075.31835 429 1115.85263 429 1115.85263 380.433048 1075.31835 380.433048"/><polygon id="Fill-58" fill="#724BFB" mask="url(#mask-4)" points="1171.40321 429 1211.93054 429 1211.93054 380.433048 1171.40321 380.433048"/><polygon id="Fill-59" fill="#724BFB" mask="url(#mask-4)" points="127.718407 429 192.586453 429 192.586453 266.87721 127.718407 266.87721"/><polygon id="Fill-60" fill="#724BFB" mask="url(#mask-4)" points="132.062854 399.583516 188.242006 399.583516 188.242006 259.178274 132.062854 259.178274"/><polygon id="Fill-61" fill="#724BFB" mask="url(#mask-4)" points="137.539427 365.148194 182.758487 365.148194 182.758487 252.136677 137.539427 252.136677"/><polygon id="Fill-62" fill="#724BFB" mask="url(#mask-4)" points="137.539427 365.337323 182.758487 365.337323 182.758487 252.325806 137.539427 252.325806"/><polygon id="Fill-63" fill="#724BFB" mask="url(#mask-4)" points="141.30392 341.327161 178.997467 341.327161 178.997467 247.122452 141.30392 247.122452"/><polygon id="Fill-64" fill="#724BFB" mask="url(#mask-4)" points="207.491622 429 270.935828 429 270.935828 321.8215 207.491622 321.8215"/><polygon id="Fill-65" fill="#724BFB" mask="url(#mask-4)" points="26.9765501 429 76.4462923 429 76.4462923 355.825516 26.9765501 355.825516"/><polygon id="Fill-66" fill="#724BFB" mask="url(#mask-4)" points="84.6281605 429 118.953112 429 118.953112 301.296387 84.6281605 301.296387"/><polygon id="Fill-67" fill="#724BFB" mask="url(#mask-4)" points="262.226097 429 296.554521 429 296.554521 351.957597 262.226097 351.957597"/><polygon id="Fill-68" fill="#724BFB" mask="url(#mask-4)" points="0 429 53.9600458 429 53.9600458 386.526694 0 386.526694"/><polygon id="Fill-69" fill="#724BFB" mask="url(#mask-4)" points="64.9965387 429 105.523874 429 105.523874 409.817242 64.9965387 409.817242"/><polygon id="Fill-70" fill="#724BFB" mask="url(#mask-4)" points="107.454739 429 147.982074 429 147.982074 386.526694 107.454739 386.526694"/><polygon id="Fill-71" fill="#724BFB" mask="url(#mask-4)" points="177.32706 429 217.854395 429 217.854395 380.433048 177.32706 380.433048"/><polygon id="Fill-72" fill="#724BFB" mask="url(#mask-4)" points="273.404974 429 313.932309 429 313.932309 380.433048 273.404974 380.433048"/><polygon id="Fill-73" fill="#724BFB" mask="url(#mask-4)" points="702.706487 429 756.66306 429 756.66306 390.632177 702.706487 390.632177"/></g></g></g></g></svg>