<?xml version="1.0"?>
<svg xmlns="http://www.w3.org/2000/svg" viewBox="0 0 24 24">
    <path d="M 2 6.0625 C 0.9 6.0625 0 6.89025 0 7.90625 L 0 17.15625 C 0 18.17225 0.9 19 2 19 L 22 19 C 23.1 19 24 18.17225 24 17.15625 L 24 7.90625 C 24 6.88925 23.1 6.0625 22 6.0625 L 2 6.0625 z M 2 10 L 3.34375 10 L 4 13.25 L 4.65625 10 L 6 10 L 6 15 L 5.15625 15 L 5.15625 10.5625 L 4.28125 15 L 3.71875 15 L 2.84375 10.5625 L 2.84375 15 L 2 15 L 2 10 z M 7 10 L 8.03125 10 L 8.78125 11.875 L 9.53125 10 L 10.53125 10 L 9.25 12.875 L 9.25 15 L 8.3125 15 L 8.3125 12.875 L 7 10 z M 12.59375 10 C 14.03375 10.042 13.97075 11.5435 13.96875 11.5625 L 13.125 11.5625 C 13.125 11.5625 13.2155 10.69675 12.5625 10.71875 C 12.2475 10.72875 12.08075 11.0385 12.09375 11.1875 C 12.14275 11.7375 12.7295 12.02125 13.0625 12.28125 C 13.5065 12.62925 14.0375 13.064 14.0625 13.75 C 14.0815 14.278 13.618 15.041 12.625 15 C 11.885 14.97 11.20175 14.57975 11.21875 13.21875 L 12.09375 13.21875 C 11.99875 13.80175 12.17675 14.26625 12.59375 14.28125 C 12.93075 14.29325 13.15125 14.06575 13.15625 13.71875 C 13.16225 13.34575 12.943 13.2055 12.625 12.9375 C 11.965 12.4475 11.281 12.13825 11.25 11.28125 C 11.236 10.88025 11.51875 9.969 12.59375 10 z M 16.5625 10 C 17.6845 10.031 18.04175 10.778 18.09375 12.5 C 18.12275 13.46 17.9125 14.28025 17.8125 14.40625 L 18.34375 14.9375 L 17.875 15.40625 L 17.34375 14.84375 C 17.23675 14.89775 16.9215 15.024 16.5625 15 C 15.5295 14.931 15.026 14.294 15 12.5 C 14.984 11.403 15.3725 9.967 16.5625 10 z M 19.375 10 L 20.3125 10 L 20.3125 14.15625 L 22 14.15625 L 22 15 L 19.375 15 L 19.375 10 z M 16.5625 10.71875 C 16.0915 10.71875 15.90625 11.706 15.90625 12.5 C 15.90625 13.273 16.004 14.28125 16.5 14.28125 C 16.527 14.28125 16.616 14.281 16.75 14.25 L 16.5 14 L 16.9375 13.53125 L 17.125 13.75 C 17.147 13.595 17.1875 12.8925 17.1875 12.6875 C 17.1895 11.8015 17.1545 10.71875 16.5625 10.71875 z"/>
</svg>
